<!DOCTYPE svg PUBLIC "-//W3C//DTD SVG 1.1//EN" "http://www.w3.org/Graphics/SVG/1.1/DTD/svg11.dtd">
<!-- Uploaded to: SVG Repo, www.svgrepo.com, Transformed by: SVG Repo Mixer Tools -->
<svg fill="#fff" height="800px" width="800px" version="1.1" id="Capa_1" xmlns="http://www.w3.org/2000/svg" xmlns:xlink="http://www.w3.org/1999/xlink" viewBox="-37.93 -37.93 455.19 455.19" xml:space="preserve" stroke="#fff">
<g id="SVGRepo_bgCarrier" stroke-width="0">
<rect x="-37.93" y="-37.93" width="455.19" height="455.19" rx="227.595" fill="#7F1D1D" strokewidth="0"/>
</g>
<g id="SVGRepo_tracerCarrier" stroke-linecap="round" stroke-linejoin="round"/>
<g id="SVGRepo_iconCarrier"> <path id="XMLID_1857_" d="M311.721,248.589c-2.55,11.48-4.958,22.324-10.233,34.938c-19.106,45.626-57.057,80.39-104.119,95.381 c-0.889,0.283-1.81,0.425-2.731,0.425s-1.844-0.142-2.732-0.425c-33.739-10.749-62.788-31.529-84.006-60.093 c-21.647-29.142-33.089-63.786-33.089-100.188c0-25.854,5.719-50.668,16.997-73.755c0.062-0.126,0.126-0.251,0.193-0.373 c9.124-18.548,21.851-35.46,37.316-49.712L35.498,77.062c-4.884-0.923-8.096-5.631-7.173-10.515 c0.923-4.885,5.633-8.094,10.515-7.173l105.088,19.854l-38.103-38.101c-3.515-3.515-3.515-9.213,0-12.729 c3.515-3.514,9.213-3.514,12.728,0l25.79,25.789c1.903-24.947,20.622-46.262,47.792-53.834c1.686-0.488,3.418-0.46,5.01,0.003 c22.758,6.348,40.38,23.049,46.004,43.608c1.312,4.794-1.512,9.744-6.306,11.056c-4.796,1.312-9.745-1.511-11.056-6.306 c-2.834-10.359-10.2-19.386-20.272-25.391c-0.053,4.568-0.509,9.464-1.377,14.438c-1.075,6.154-4.42,21.237-12.26,28.365 c-3.677,3.345-9.369,3.074-12.713-0.604c-3.344-3.677-3.074-9.369,0.604-12.713c1.346-1.224,4.739-7.27,6.638-18.145 c0.872-4.996,1.172-9.584,1.095-13.397c-15.471,7.531-25.318,21.554-25.318,37.129c0,6.572,1.714,12.867,5.096,18.725l9.955,9.955 c0.055,0.055,0.109,0.109,0.163,0.165c1.048,1.088,1.77,2.376,2.163,3.737c0.332,1.143,0.441,2.365,0.287,3.608 c-0.11,0.892-0.353,1.771-0.729,2.604c0,0,0,0,0,0.001c-0.002,0.004-0.004,0.008-0.005,0.012c-0.597,1.319-1.496,2.45-2.593,3.322 c-0.757,0.604-1.59,1.069-2.462,1.394c-1.488,0.555-3.139,0.724-4.814,0.409l-17.129-3.236 c-15.133,11.671-28.294,26.423-38.052,42.559c10.791,1.484,21.585,2.805,32.124,4.094c3.098,0.379,6.199,0.758,9.307,1.143 c4.933,0.609,8.438,5.103,7.829,10.035c-0.61,4.934-5.104,8.442-10.036,7.828c-3.1-0.383-6.194-0.761-9.285-1.139 c-12.66-1.549-25.687-3.142-38.715-5.019c-8.281,18.936-12.476,39.101-12.476,60.031c0,64.724,40.8,121.519,101.828,142.231 c40.762-13.843,73.554-44.42,90.246-84.281c4.655-11.131,6.792-20.751,9.266-31.891c1.078-4.853,5.886-7.906,10.737-6.835 C309.738,238.93,312.798,243.736,311.721,248.589z M157.735,200.892c-10.271,0-19.706,4.583-24.622,11.961 c-2.756,4.137-1.636,9.725,2.5,12.48c4.135,2.755,9.725,1.637,12.479-2.5c1.265-1.898,4.821-3.941,9.642-3.941 c4.821,0,8.379,2.044,9.645,3.943c1.734,2.602,4.588,4.009,7.497,4.009c1.715,0,3.45-0.489,4.984-1.513 c4.136-2.757,5.253-8.345,2.497-12.48C177.44,205.474,168.005,200.892,157.735,200.892z M350.779,141.942 c-3.977,13.146-16.393,24.15-32.511,29.604c7.7,15.171,8.878,31.723,2.525,43.899c-1.213,2.324-3.378,4.004-5.931,4.601 c-13.376,3.124-29.119-2.13-41.901-13.364c-9.308,14.282-23.04,23.56-36.75,24.145c-0.129,0.005-0.257,0.008-0.385,0.008 c-2.481,0-4.859-1.025-6.564-2.844c-9.395-10.02-12.714-26.278-9.377-42.965c-17.007-0.917-31.916-8.173-39.281-19.759 c-1.406-2.212-1.778-4.928-1.019-7.437c3.98-13.146,16.4-24.149,32.519-29.602c-7.707-15.186-8.88-31.726-2.532-43.898 c1.213-2.324,3.379-4.005,5.933-4.602c13.372-3.128,29.116,2.129,41.896,13.361c9.296-14.266,23.034-23.552,36.751-24.141 c2.632-0.095,5.159,0.924,6.952,2.837c9.392,10.02,12.711,26.277,9.376,42.961c16.994,0.916,31.912,8.172,39.279,19.761 C351.166,136.72,351.538,139.434,350.779,141.942z M331.735,140.767c-6.695-6.319-19.085-9.409-32.021-7.63l-0.254,0.035 c-3.202,0.442-6.395-0.862-8.366-3.423c-1.973-2.561-2.42-5.981-1.174-8.963l0.104-0.25c4.905-12.029,4.991-24.788,0.537-32.846 c-8.821,2.643-17.688,11.828-22.621,23.92l-0.084,0.209c-1.205,2.994-3.92,5.114-7.117,5.556c-3.196,0.445-6.385-0.861-8.357-3.417 l-0.165-0.214c-7.991-10.302-19.001-16.762-28.208-16.933c-2.122,8.961,1.399,21.232,9.403,31.551l0.137,0.175 c1.996,2.544,2.474,5.962,1.252,8.956c-1.222,2.993-3.955,5.101-7.16,5.521l-0.268,0.035c-12.896,1.769-23.991,8.073-28.74,15.96 c6.695,6.318,19.086,9.406,32.022,7.631l0.211-0.03c0.427-0.061,0.854-0.091,1.278-0.091c2.747,0,5.373,1.259,7.093,3.461 c1.984,2.542,2.458,5.951,1.24,8.938l-0.102,0.249c-4.934,12.093-5.023,24.861-0.568,32.919c8.819-2.641,17.688-11.827,22.622-23.92 l0.063-0.16c1.191-3.013,3.91-5.153,7.118-5.604c3.198-0.461,6.41,0.856,8.386,3.425l0.166,0.216 c7.985,10.293,18.994,16.75,28.199,16.92c2.12-8.945-1.388-21.194-9.367-31.504l-0.133-0.167c-2.021-2.538-2.521-5.968-1.305-8.977 c1.215-3.009,3.955-5.131,7.172-5.553l0.268-0.035C315.893,154.96,326.987,148.654,331.735,140.767z M272.348,140.827 c-3.897-3.082-9.56-2.42-12.642,1.478l-3.164,4.002c-3.083,3.899-2.422,9.56,1.478,12.642c1.652,1.307,3.621,1.94,5.576,1.94 c2.657,0,5.29-1.172,7.065-3.418l3.164-4.002C276.908,149.569,276.247,143.909,272.348,140.827z M170.555,304.898 c-3.348,3.674-3.085,9.366,0.588,12.715c4.897,4.465,13.21,7.063,22.447,7.063c0.484,0,0.972-0.007,1.46-0.021 c9.813-0.29,18.581-3.444,23.454-8.437c3.472-3.557,3.403-9.255-0.154-12.727c-3.558-3.474-9.255-3.403-12.727,0.154 c-0.882,0.903-4.756,2.829-11.104,3.017c-6.349,0.184-10.321-1.505-11.251-2.353C179.597,300.962,173.905,301.226,170.555,304.898z"/> </g>
</svg>